<mxfile host="app.diagrams.net" modified="2024-03-14T23:02:36.173Z" agent="Mozilla/5.0 (X11; Linux x86_64) AppleWebKit/537.36 (KHTML, like Gecko) Chrome/108.0.0.0 Safari/537.36" etag="66dEnGzncVRgLw4iLFpz" version="24.0.6" type="device">
  <diagram name="Página-1" id="GzvyqKEEQReVkW4sI8Jk">
    <mxGraphModel dx="1583" dy="657" grid="1" gridSize="10" guides="1" tooltips="1" connect="1" arrows="1" fold="1" page="1" pageScale="1" pageWidth="827" pageHeight="1169" math="0" shadow="0">
      <root>
        <mxCell id="0" />
        <mxCell id="1" parent="0" />
        <mxCell id="ivD3lUj0bDSizO7eYYzA-9" style="edgeStyle=orthogonalEdgeStyle;rounded=0;orthogonalLoop=1;jettySize=auto;html=1;exitX=1;exitY=0;exitDx=0;exitDy=0;" edge="1" parent="1" source="ivD3lUj0bDSizO7eYYzA-1" target="ivD3lUj0bDSizO7eYYzA-6">
          <mxGeometry relative="1" as="geometry" />
        </mxCell>
        <mxCell id="ivD3lUj0bDSizO7eYYzA-11" style="edgeStyle=orthogonalEdgeStyle;rounded=0;orthogonalLoop=1;jettySize=auto;html=1;exitX=1;exitY=0.75;exitDx=0;exitDy=0;entryX=0;entryY=0.5;entryDx=0;entryDy=0;" edge="1" parent="1" source="ivD3lUj0bDSizO7eYYzA-1" target="ivD3lUj0bDSizO7eYYzA-5">
          <mxGeometry relative="1" as="geometry" />
        </mxCell>
        <mxCell id="ivD3lUj0bDSizO7eYYzA-13" style="edgeStyle=orthogonalEdgeStyle;rounded=0;orthogonalLoop=1;jettySize=auto;html=1;exitX=0;exitY=0.5;exitDx=0;exitDy=0;" edge="1" parent="1" source="ivD3lUj0bDSizO7eYYzA-1" target="ivD3lUj0bDSizO7eYYzA-7">
          <mxGeometry relative="1" as="geometry" />
        </mxCell>
        <mxCell id="ivD3lUj0bDSizO7eYYzA-18" style="edgeStyle=orthogonalEdgeStyle;rounded=0;orthogonalLoop=1;jettySize=auto;html=1;exitX=0.5;exitY=0;exitDx=0;exitDy=0;" edge="1" parent="1" source="ivD3lUj0bDSizO7eYYzA-1" target="ivD3lUj0bDSizO7eYYzA-4">
          <mxGeometry relative="1" as="geometry" />
        </mxCell>
        <mxCell id="ivD3lUj0bDSizO7eYYzA-19" style="edgeStyle=orthogonalEdgeStyle;rounded=0;orthogonalLoop=1;jettySize=auto;html=1;exitX=0;exitY=0;exitDx=0;exitDy=0;entryX=1;entryY=0.5;entryDx=0;entryDy=0;" edge="1" parent="1" source="ivD3lUj0bDSizO7eYYzA-1" target="ivD3lUj0bDSizO7eYYzA-3">
          <mxGeometry relative="1" as="geometry" />
        </mxCell>
        <mxCell id="ivD3lUj0bDSizO7eYYzA-1" value="Livro" style="rounded=0;whiteSpace=wrap;html=1;" vertex="1" parent="1">
          <mxGeometry x="370" y="340" width="120" height="60" as="geometry" />
        </mxCell>
        <mxCell id="ivD3lUj0bDSizO7eYYzA-3" value="&lt;u&gt;Nome&lt;/u&gt;" style="ellipse;whiteSpace=wrap;html=1;" vertex="1" parent="1">
          <mxGeometry x="190" y="210" width="120" height="80" as="geometry" />
        </mxCell>
        <mxCell id="ivD3lUj0bDSizO7eYYzA-4" value="&lt;u&gt;Autor&lt;/u&gt;" style="ellipse;whiteSpace=wrap;html=1;" vertex="1" parent="1">
          <mxGeometry x="360" y="180" width="120" height="80" as="geometry" />
        </mxCell>
        <mxCell id="ivD3lUj0bDSizO7eYYzA-5" value="&lt;u&gt;Editora&lt;/u&gt;" style="ellipse;whiteSpace=wrap;html=1;" vertex="1" parent="1">
          <mxGeometry x="630" y="300" width="120" height="80" as="geometry" />
        </mxCell>
        <mxCell id="ivD3lUj0bDSizO7eYYzA-6" value="Ano de publicação" style="ellipse;whiteSpace=wrap;html=1;" vertex="1" parent="1">
          <mxGeometry x="500" y="190" width="120" height="80" as="geometry" />
        </mxCell>
        <mxCell id="ivD3lUj0bDSizO7eYYzA-7" value="ISBN" style="ellipse;whiteSpace=wrap;html=1;" vertex="1" parent="1">
          <mxGeometry x="170" y="310" width="120" height="80" as="geometry" />
        </mxCell>
        <mxCell id="ivD3lUj0bDSizO7eYYzA-17" style="edgeStyle=orthogonalEdgeStyle;rounded=0;orthogonalLoop=1;jettySize=auto;html=1;exitX=0;exitY=0.5;exitDx=0;exitDy=0;entryX=1;entryY=0.5;entryDx=0;entryDy=0;" edge="1" parent="1" source="ivD3lUj0bDSizO7eYYzA-14" target="ivD3lUj0bDSizO7eYYzA-15">
          <mxGeometry relative="1" as="geometry" />
        </mxCell>
        <mxCell id="ivD3lUj0bDSizO7eYYzA-14" value="Área" style="rounded=0;whiteSpace=wrap;html=1;" vertex="1" parent="1">
          <mxGeometry x="370" y="660" width="120" height="60" as="geometry" />
        </mxCell>
        <mxCell id="ivD3lUj0bDSizO7eYYzA-15" value="&lt;u&gt;Categorias&lt;/u&gt;" style="ellipse;whiteSpace=wrap;html=1;" vertex="1" parent="1">
          <mxGeometry x="140" y="650" width="120" height="80" as="geometry" />
        </mxCell>
        <mxCell id="ivD3lUj0bDSizO7eYYzA-20" value="tem" style="rhombus;whiteSpace=wrap;html=1;" vertex="1" parent="1">
          <mxGeometry x="390" y="470" width="80" height="80" as="geometry" />
        </mxCell>
        <mxCell id="ivD3lUj0bDSizO7eYYzA-21" value="" style="endArrow=none;html=1;rounded=0;exitX=0.5;exitY=0;exitDx=0;exitDy=0;" edge="1" parent="1" source="ivD3lUj0bDSizO7eYYzA-20" target="ivD3lUj0bDSizO7eYYzA-1">
          <mxGeometry width="50" height="50" relative="1" as="geometry">
            <mxPoint x="370" y="510" as="sourcePoint" />
            <mxPoint x="420" y="460" as="targetPoint" />
          </mxGeometry>
        </mxCell>
        <mxCell id="ivD3lUj0bDSizO7eYYzA-23" value="0,n" style="edgeLabel;html=1;align=center;verticalAlign=middle;resizable=0;points=[];" vertex="1" connectable="0" parent="ivD3lUj0bDSizO7eYYzA-21">
          <mxGeometry x="0.3143" y="3" relative="1" as="geometry">
            <mxPoint as="offset" />
          </mxGeometry>
        </mxCell>
        <mxCell id="ivD3lUj0bDSizO7eYYzA-22" value="" style="endArrow=none;html=1;rounded=0;exitX=0.5;exitY=1;exitDx=0;exitDy=0;" edge="1" parent="1" source="ivD3lUj0bDSizO7eYYzA-20" target="ivD3lUj0bDSizO7eYYzA-14">
          <mxGeometry width="50" height="50" relative="1" as="geometry">
            <mxPoint x="370" y="510" as="sourcePoint" />
            <mxPoint x="420" y="460" as="targetPoint" />
          </mxGeometry>
        </mxCell>
        <mxCell id="ivD3lUj0bDSizO7eYYzA-24" value="1,1" style="edgeLabel;html=1;align=center;verticalAlign=middle;resizable=0;points=[];" vertex="1" connectable="0" parent="ivD3lUj0bDSizO7eYYzA-22">
          <mxGeometry x="-0.2531" y="-2" relative="1" as="geometry">
            <mxPoint as="offset" />
          </mxGeometry>
        </mxCell>
        <mxCell id="ivD3lUj0bDSizO7eYYzA-30" style="edgeStyle=orthogonalEdgeStyle;rounded=0;orthogonalLoop=1;jettySize=auto;html=1;exitX=0.5;exitY=1;exitDx=0;exitDy=0;" edge="1" parent="1" source="ivD3lUj0bDSizO7eYYzA-25" target="ivD3lUj0bDSizO7eYYzA-28">
          <mxGeometry relative="1" as="geometry" />
        </mxCell>
        <mxCell id="ivD3lUj0bDSizO7eYYzA-57" style="edgeStyle=orthogonalEdgeStyle;rounded=0;orthogonalLoop=1;jettySize=auto;html=1;exitX=0;exitY=0.25;exitDx=0;exitDy=0;" edge="1" parent="1" source="ivD3lUj0bDSizO7eYYzA-25" target="ivD3lUj0bDSizO7eYYzA-54">
          <mxGeometry relative="1" as="geometry" />
        </mxCell>
        <mxCell id="ivD3lUj0bDSizO7eYYzA-25" value="Aluno" style="rounded=0;whiteSpace=wrap;html=1;" vertex="1" parent="1">
          <mxGeometry x="-290" y="500" width="120" height="60" as="geometry" />
        </mxCell>
        <mxCell id="ivD3lUj0bDSizO7eYYzA-26" value="&lt;u&gt;Matricula&lt;/u&gt;" style="ellipse;whiteSpace=wrap;html=1;" vertex="1" parent="1">
          <mxGeometry x="-420" y="400" width="120" height="80" as="geometry" />
        </mxCell>
        <mxCell id="ivD3lUj0bDSizO7eYYzA-27" value="Nome" style="ellipse;whiteSpace=wrap;html=1;" vertex="1" parent="1">
          <mxGeometry x="-470" y="530" width="120" height="80" as="geometry" />
        </mxCell>
        <mxCell id="ivD3lUj0bDSizO7eYYzA-28" value="Telefone" style="ellipse;whiteSpace=wrap;html=1;" vertex="1" parent="1">
          <mxGeometry x="-260" y="590" width="120" height="80" as="geometry" />
        </mxCell>
        <mxCell id="ivD3lUj0bDSizO7eYYzA-31" style="edgeStyle=orthogonalEdgeStyle;rounded=0;orthogonalLoop=1;jettySize=auto;html=1;exitX=0;exitY=0.5;exitDx=0;exitDy=0;entryX=1;entryY=0.75;entryDx=0;entryDy=0;entryPerimeter=0;" edge="1" parent="1" source="ivD3lUj0bDSizO7eYYzA-25" target="ivD3lUj0bDSizO7eYYzA-27">
          <mxGeometry relative="1" as="geometry" />
        </mxCell>
        <mxCell id="ivD3lUj0bDSizO7eYYzA-32" style="edgeStyle=orthogonalEdgeStyle;rounded=0;orthogonalLoop=1;jettySize=auto;html=1;exitX=0.25;exitY=0;exitDx=0;exitDy=0;entryX=0.977;entryY=0.791;entryDx=0;entryDy=0;entryPerimeter=0;" edge="1" parent="1" source="ivD3lUj0bDSizO7eYYzA-25" target="ivD3lUj0bDSizO7eYYzA-26">
          <mxGeometry relative="1" as="geometry" />
        </mxCell>
        <mxCell id="ivD3lUj0bDSizO7eYYzA-41" style="edgeStyle=orthogonalEdgeStyle;rounded=0;orthogonalLoop=1;jettySize=auto;html=1;exitX=1;exitY=0;exitDx=0;exitDy=0;" edge="1" parent="1" source="ivD3lUj0bDSizO7eYYzA-34" target="ivD3lUj0bDSizO7eYYzA-38">
          <mxGeometry relative="1" as="geometry" />
        </mxCell>
        <mxCell id="ivD3lUj0bDSizO7eYYzA-42" style="edgeStyle=orthogonalEdgeStyle;rounded=0;orthogonalLoop=1;jettySize=auto;html=1;exitX=0.5;exitY=0;exitDx=0;exitDy=0;" edge="1" parent="1" source="ivD3lUj0bDSizO7eYYzA-34" target="ivD3lUj0bDSizO7eYYzA-39">
          <mxGeometry relative="1" as="geometry" />
        </mxCell>
        <mxCell id="ivD3lUj0bDSizO7eYYzA-43" style="edgeStyle=orthogonalEdgeStyle;rounded=0;orthogonalLoop=1;jettySize=auto;html=1;exitX=0;exitY=0;exitDx=0;exitDy=0;" edge="1" parent="1" source="ivD3lUj0bDSizO7eYYzA-34" target="ivD3lUj0bDSizO7eYYzA-40">
          <mxGeometry relative="1" as="geometry" />
        </mxCell>
        <mxCell id="ivD3lUj0bDSizO7eYYzA-34" value="Turma" style="rounded=0;whiteSpace=wrap;html=1;" vertex="1" parent="1">
          <mxGeometry x="-240" y="190" width="120" height="60" as="geometry" />
        </mxCell>
        <mxCell id="ivD3lUj0bDSizO7eYYzA-35" value="tem" style="rhombus;whiteSpace=wrap;html=1;" vertex="1" parent="1">
          <mxGeometry x="-220" y="320" width="80" height="80" as="geometry" />
        </mxCell>
        <mxCell id="ivD3lUj0bDSizO7eYYzA-36" value="" style="endArrow=none;html=1;rounded=0;exitX=0.75;exitY=0;exitDx=0;exitDy=0;" edge="1" parent="1" source="ivD3lUj0bDSizO7eYYzA-25" target="ivD3lUj0bDSizO7eYYzA-35">
          <mxGeometry width="50" height="50" relative="1" as="geometry">
            <mxPoint x="-130" y="500" as="sourcePoint" />
            <mxPoint x="-80" y="450" as="targetPoint" />
          </mxGeometry>
        </mxCell>
        <mxCell id="ivD3lUj0bDSizO7eYYzA-37" value="" style="endArrow=none;html=1;rounded=0;exitX=0.5;exitY=0;exitDx=0;exitDy=0;" edge="1" parent="1" source="ivD3lUj0bDSizO7eYYzA-35" target="ivD3lUj0bDSizO7eYYzA-34">
          <mxGeometry width="50" height="50" relative="1" as="geometry">
            <mxPoint x="-130" y="500" as="sourcePoint" />
            <mxPoint x="-80" y="450" as="targetPoint" />
          </mxGeometry>
        </mxCell>
        <mxCell id="ivD3lUj0bDSizO7eYYzA-38" value="ID" style="ellipse;whiteSpace=wrap;html=1;" vertex="1" parent="1">
          <mxGeometry x="-70" y="80" width="120" height="80" as="geometry" />
        </mxCell>
        <mxCell id="ivD3lUj0bDSizO7eYYzA-39" value="Nome" style="ellipse;whiteSpace=wrap;html=1;" vertex="1" parent="1">
          <mxGeometry x="-230" y="20" width="120" height="80" as="geometry" />
        </mxCell>
        <mxCell id="ivD3lUj0bDSizO7eYYzA-40" value="ppc" style="ellipse;whiteSpace=wrap;html=1;" vertex="1" parent="1">
          <mxGeometry x="-430" y="70" width="120" height="80" as="geometry" />
        </mxCell>
        <mxCell id="ivD3lUj0bDSizO7eYYzA-58" style="edgeStyle=orthogonalEdgeStyle;rounded=0;orthogonalLoop=1;jettySize=auto;html=1;exitX=0;exitY=0;exitDx=0;exitDy=0;entryX=1;entryY=0.5;entryDx=0;entryDy=0;" edge="1" parent="1" source="ivD3lUj0bDSizO7eYYzA-54" target="ivD3lUj0bDSizO7eYYzA-55">
          <mxGeometry relative="1" as="geometry" />
        </mxCell>
        <mxCell id="ivD3lUj0bDSizO7eYYzA-59" style="edgeStyle=orthogonalEdgeStyle;rounded=0;orthogonalLoop=1;jettySize=auto;html=1;exitX=0;exitY=1;exitDx=0;exitDy=0;entryX=0.5;entryY=0;entryDx=0;entryDy=0;" edge="1" parent="1" source="ivD3lUj0bDSizO7eYYzA-54" target="ivD3lUj0bDSizO7eYYzA-56">
          <mxGeometry relative="1" as="geometry" />
        </mxCell>
        <mxCell id="ivD3lUj0bDSizO7eYYzA-54" value="Endereço" style="ellipse;whiteSpace=wrap;html=1;align=center;" vertex="1" parent="1">
          <mxGeometry x="-570" y="480" width="100" height="40" as="geometry" />
        </mxCell>
        <mxCell id="ivD3lUj0bDSizO7eYYzA-55" value="Bairro" style="ellipse;whiteSpace=wrap;html=1;align=center;" vertex="1" parent="1">
          <mxGeometry x="-710" y="450" width="100" height="40" as="geometry" />
        </mxCell>
        <mxCell id="ivD3lUj0bDSizO7eYYzA-56" value="CEP" style="ellipse;whiteSpace=wrap;html=1;align=center;" vertex="1" parent="1">
          <mxGeometry x="-690" y="550" width="100" height="40" as="geometry" />
        </mxCell>
      </root>
    </mxGraphModel>
  </diagram>
</mxfile>
